# xmcd
#
# Track frame offsets: 
#        150
#        21240
#        50980
#        52826
#        71780
#        80158
#        96418
#        100951
#        107494
#        115079
#        140935
#        158616
#        161566
#        176806
#        179928
#        216285
#        234845
#        235758
#        273850
#        276380
#
# Disc length: 3832 seconds
#
# Revision: 3
# Processed by: cddbd v1.5.2PL0 Copyright (c) Steve Scherf et al.
# Submitted via: ExactAudioCopy v0.99pb4
#
DISCID=2d0ef614
DTITLE=Junior Wells - Live At Theresa's 1975
DYEAR=2006
DGENRE=Blues
TTITLE0=Little By Little
TTITLE1=Snatch It Back And Hold It
TTITLE2=Talk
TTITLE3=Lover Her With A Feeling
TTITLE4=Talk
TTITLE5=Juke
TTITLE6=Talk
TTITLE7=Happy Birthday
TTITLE8=Talk
TTITLE9=Scratch My Back
TTITLE10=Help The Poor
TTITLE11=Talk
TTITLE12=Come On In This House
TTITLE13=Talk
TTITLE14=What My Mama Told Me
TTITLE15=Key To The Highway
TTITLE16=Talk
TTITLE17=Goin' Down Slow
TTITLE18=Talk
TTITLE19=Messin' With The Kid
EXTD=YEAR: 2006
EXTT0=
EXTT1=
EXTT2=
EXTT3=
EXTT4=
EXTT5=
EXTT6=
EXTT7=
EXTT8=
EXTT9=
EXTT10=
EXTT11=
EXTT12=
EXTT13=
EXTT14=
EXTT15=
EXTT16=
EXTT17=
EXTT18=
EXTT19=
PLAYORDER=
